 <svg  version="1.0" xmlns="http://www.w3.org/2000/svg"  width="167.000000pt" height="170.000000pt" viewBox="0 0 167.000000 170.000000"  preserveAspectRatio="xMidYMid meet">  <g transform="translate(0.000000,170.000000) scale(0.100000,-0.100000)" fill="#92c730" stroke="none"> <path d="M873 1548 c-41 -31 -70 -66 -144 -178 -99 -150 -142 -251 -166 -390 l-8 -45 -60 -8 c-181 -23 -258 -47 -272 -83 -6 -17 24 -115 61 -197 14 -31 26 -59 26 -62 0 -16 113 -196 164 -262 41 -53 77 -85 131 -118 92 -58 148 -75 241 -75 93 0 166 26 222 80 47 45 60 80 43 116 -10 22 -9 24 12 19 34 -9 64 30 84 109 14 56 14 79 5 138 -10 68 -9 73 12 102 40 52 66 144 66 228 0 136 -70 303 -195 463 -62 80 -166 185 -182 185 -5 0 -23 -10 -40 -22z m99 -65 c176 -186 288 -402 288 -558 0 -95 -47 -235 -79 -235 -4 0 -23 22 -42 50 -19 27 -56 66 -84 87 -27 20 -52 39 -55 41 -2 1 -7 38 -11 80 -4 42 -13 115 -20 162 l-14 85 -3 -149 c-3 -148 -3 -148 -25 -142 -62 19 -181 35 -254 36 l-82 0 6 53 c6 58 36 145 78 227 55 108 210 320 234 320 5 0 33 -26 63 -57z m-173 -587 c165 -25 313 -120 362 -233 28 -63 30 -169 5 -240 -9 -29 -20 -53 -23 -53 -3 0 -38 31 -79 68 -83 77 -209 152 -334 201 -47 18 -95 37 -108 42 -52 21 -31 6 72 -52 193 -107 290 -182 362 -281 42 -57 40 -74 -19 -122 -98 -79 -229 -86 -365 -19 -125 62 -220 175 -322 381 -43 86 -100 230 -100 251 0 18 280 66 410 70 25 0 87 -5 139 -13z"/> </g> </svg> 