<svg xmlns="http://www.w3.org/2000/svg" xmlns:xlink="http://www.w3.org/1999/xlink" width="40" zoomAndPan="magnify" viewBox="0 0 30 30.000001" height="40" preserveAspectRatio="xMidYMid meet" version="1.0"><defs><clipPath id="183919f36f"><path d="M 0.484375 0 L 29.515625 0 L 29.515625 29.03125 L 0.484375 29.03125 Z M 0.484375 0 " clip-rule="nonzero"/></clipPath><clipPath id="398a7b1fd6"><path d="M 0.484375 1 L 29.515625 1 L 29.515625 29.03125 L 0.484375 29.03125 Z M 0.484375 1 " clip-rule="nonzero"/></clipPath><clipPath id="d1d350a9aa"><path d="M 0.707031 11.164062 L 18.375 1.121094 L 29.132812 20.054688 L 11.464844 30.09375 Z M 0.707031 11.164062 " clip-rule="nonzero"/></clipPath><clipPath id="554bd2be69"><path d="M 5 12 L 22 12 L 22 26 L 5 26 Z M 5 12 " clip-rule="nonzero"/></clipPath><clipPath id="1adca4038c"><path d="M 0.707031 10.164062 L 18.375 0.121094 L 29.132812 19.054688 L 11.464844 29.09375 Z M 0.707031 10.164062 " clip-rule="nonzero"/></clipPath><clipPath id="2f6a0d5d51"><path d="M 18.5625 0.015625 L 0.894531 10.054688 L 11.652344 28.988281 L 29.320312 18.949219 Z M 18.5625 0.015625 " clip-rule="nonzero"/></clipPath><clipPath id="6d1c883a4b"><path d="M 18.5625 0.015625 L 0.894531 10.054688 L 11.652344 28.988281 L 29.320312 18.949219 Z M 18.5625 0.015625 " clip-rule="nonzero"/></clipPath><clipPath id="89a5caa815"><path d="M 11 1 L 23 1 L 23 17 L 11 17 Z M 11 1 " clip-rule="nonzero"/></clipPath><clipPath id="224e2d65cf"><path d="M 0.707031 10.164062 L 18.375 0.121094 L 29.132812 19.054688 L 11.464844 29.09375 Z M 0.707031 10.164062 " clip-rule="nonzero"/></clipPath><clipPath id="ffc42a7444"><path d="M 18.5625 0.015625 L 0.894531 10.054688 L 11.652344 28.988281 L 29.320312 18.949219 Z M 18.5625 0.015625 " clip-rule="nonzero"/></clipPath><clipPath id="113318c8dc"><path d="M 18.5625 0.015625 L 0.894531 10.054688 L 11.652344 28.988281 L 29.320312 18.949219 Z M 18.5625 0.015625 " clip-rule="nonzero"/></clipPath><clipPath id="f96ecd396b"><rect x="0" width="30" y="0" height="30"/></clipPath></defs><g clip-path="url(#183919f36f)"><g clip-path="url(#398a7b1fd6)"><g clip-path="url(#d1d350a9aa)"><g clip-path="url(#554bd2be69)"><path fill="#095f3d" d="M 5.867188 12.027344 L 13.457031 12.027344 L 13.457031 25.140625 L 5.867188 25.140625 Z M 5.867188 12.027344 " fill-opacity="1" fill-rule="nonzero"/></g></g></g></g><g clip-path="url(#1adca4038c)"><g clip-path="url(#2f6a0d5d51)"><g clip-path="url(#6d1c883a4b)"><g clip-path="url(#89a5caa815)"><path fill="#54b848" d="M 11.5 1.453125 L 22.324219 16.257812 L 16.035156 16.257812 L 16.035156 5.4375 Z M 11.5 1.453125 " fill-opacity="1" fill-rule="nonzero"/></g></g></g></g><g clip-path="url(#224e2d65cf)"><g clip-path="url(#ffc42a7444)"><g clip-path="url(#113318c8dc)"><rect x="0" y="0" width="30" fill="#ffffff" height="30.000001" fill-opacity="1"/><g clip-path="url(#f96ecd396b)"><path fill="#095f3d" d="M 5.867188 12.027344 L 13.457031 12.027344 L 13.457031 25.140625 L 5.867188 25.140625 Z M 5.867188 12.027344 " fill-opacity="1" fill-rule="nonzero"/><path fill="#54b848" d="M 11.5 1.453125 L 22.324219 16.257812 L 16.035156 16.257812 L 16.035156 5.4375 Z M 11.5 1.453125 " fill-opacity="1" fill-rule="nonzero"/></g></g></g></g></svg>
