<svg xmlns="http://www.w3.org/2000/svg" xmlns:xlink="http://www.w3.org/1999/xlink" width="40" zoomAndPan="magnify" viewBox="0 0 30 30.000001" height="40" preserveAspectRatio="xMidYMid meet" version="1.0"><defs><clipPath id="449d06ba25"><path d="M 0.484375 0 L 29.515625 0 L 29.515625 29.03125 L 0.484375 29.03125 Z M 0.484375 0 " clip-rule="nonzero"/></clipPath><clipPath id="7cf64e6f85"><path d="M 0.484375 1 L 29.515625 1 L 29.515625 29.03125 L 0.484375 29.03125 Z M 0.484375 1 " clip-rule="nonzero"/></clipPath><clipPath id="902b200d18"><path d="M 0.707031 11.164062 L 18.375 1.121094 L 29.132812 20.054688 L 11.464844 30.09375 Z M 0.707031 11.164062 " clip-rule="nonzero"/></clipPath><clipPath id="8a94187602"><path d="M 5 12 L 22 12 L 22 26 L 5 26 Z M 5 12 " clip-rule="nonzero"/></clipPath><clipPath id="2c5156365f"><path d="M 0.707031 10.164062 L 18.375 0.121094 L 29.132812 19.054688 L 11.464844 29.09375 Z M 0.707031 10.164062 " clip-rule="nonzero"/></clipPath><clipPath id="208f9c7dec"><path d="M 18.5625 0.015625 L 0.894531 10.054688 L 11.652344 28.988281 L 29.320312 18.949219 Z M 18.5625 0.015625 " clip-rule="nonzero"/></clipPath><clipPath id="3cc6c52943"><path d="M 18.5625 0.015625 L 0.894531 10.054688 L 11.652344 28.988281 L 29.320312 18.949219 Z M 18.5625 0.015625 " clip-rule="nonzero"/></clipPath><clipPath id="c8f17a0a66"><path d="M 11 1 L 23 1 L 23 17 L 11 17 Z M 11 1 " clip-rule="nonzero"/></clipPath><clipPath id="264992583d"><path d="M 0.707031 10.164062 L 18.375 0.121094 L 29.132812 19.054688 L 11.464844 29.09375 Z M 0.707031 10.164062 " clip-rule="nonzero"/></clipPath><clipPath id="2021604738"><path d="M 18.5625 0.015625 L 0.894531 10.054688 L 11.652344 28.988281 L 29.320312 18.949219 Z M 18.5625 0.015625 " clip-rule="nonzero"/></clipPath><clipPath id="41f36fa19c"><path d="M 18.5625 0.015625 L 0.894531 10.054688 L 11.652344 28.988281 L 29.320312 18.949219 Z M 18.5625 0.015625 " clip-rule="nonzero"/></clipPath><clipPath id="57ccafbe80"><rect x="0" width="30" y="0" height="30"/></clipPath></defs><g clip-path="url(#449d06ba25)"><g clip-path="url(#7cf64e6f85)"><g clip-path="url(#902b200d18)"><g clip-path="url(#8a94187602)"><path fill="#095f3d" d="M 5.867188 12.027344 L 13.457031 12.027344 L 13.457031 25.140625 L 5.867188 25.140625 Z M 5.867188 12.027344 " fill-opacity="1" fill-rule="nonzero"/></g></g></g></g><g clip-path="url(#2c5156365f)"><g clip-path="url(#208f9c7dec)"><g clip-path="url(#3cc6c52943)"><g clip-path="url(#c8f17a0a66)"><path fill="#54b848" d="M 11.5 1.453125 L 22.324219 16.257812 L 16.035156 16.257812 L 16.035156 5.4375 Z M 11.5 1.453125 " fill-opacity="1" fill-rule="nonzero"/></g></g></g></g><g clip-path="url(#264992583d)"><g clip-path="url(#2021604738)"><g clip-path="url(#41f36fa19c)"><rect x="0" y="0" width="30" fill="#ffffff" height="30.000001" fill-opacity="1"/><g clip-path="url(#57ccafbe80)"><path fill="#095f3d" d="M 5.867188 12.027344 L 13.457031 12.027344 L 13.457031 25.140625 L 5.867188 25.140625 Z M 5.867188 12.027344 " fill-opacity="1" fill-rule="nonzero"/><path fill="#54b848" d="M 11.5 1.453125 L 22.324219 16.257812 L 16.035156 16.257812 L 16.035156 5.4375 Z M 11.5 1.453125 " fill-opacity="1" fill-rule="nonzero"/></g></g></g></g></svg>
