<svg xmlns="http://www.w3.org/2000/svg" xmlns:xlink="http://www.w3.org/1999/xlink" width="300" zoomAndPan="magnify" viewBox="0 0 224.87999 225" height="300" preserveAspectRatio="xMidYMid meet" version="1.0"><defs><clipPath id="544eb4619a"><path d="M 0 0.0585938 L 224.761719 0.0585938 L 224.761719 224.9375 L 0 224.9375 Z M 0 0.0585938 " clip-rule="nonzero"/></clipPath><clipPath id="2b6da5e8db"><path d="M 15 14 L 210 14 L 210 211 L 15 211 Z M 15 14 " clip-rule="nonzero"/></clipPath><clipPath id="7d0b875a40"><path d="M 15.667969 82.917969 L 136.890625 14.039062 L 209.472656 141.777344 L 88.25 210.660156 Z M 15.667969 82.917969 " clip-rule="nonzero"/></clipPath><clipPath id="8beb383163"><path d="M 28 84 L 140 84 L 140 173 L 28 173 Z M 28 84 " clip-rule="nonzero"/></clipPath><clipPath id="7d2210ddf2"><path d="M 0.667969 68.917969 L 121.890625 0.0390625 L 194.472656 127.777344 L 73.25 196.660156 Z M 0.667969 68.917969 " clip-rule="nonzero"/></clipPath><clipPath id="84ff89b842"><path d="M 121.566406 0.222656 L 0.339844 69.101562 L 72.925781 196.84375 L 194.148438 127.964844 Z M 121.566406 0.222656 " clip-rule="nonzero"/></clipPath><clipPath id="132d5bbd4b"><path d="M 121.566406 0.222656 L 0.339844 69.101562 L 72.925781 196.84375 L 194.148438 127.964844 Z M 121.566406 0.222656 " clip-rule="nonzero"/></clipPath><clipPath id="17736c1b0f"><path d="M 70 8 L 149 8 L 149 110 L 70 110 Z M 70 8 " clip-rule="nonzero"/></clipPath><clipPath id="9102cddf02"><path d="M 0.667969 68.917969 L 121.890625 0.0390625 L 194.472656 127.777344 L 73.25 196.660156 Z M 0.667969 68.917969 " clip-rule="nonzero"/></clipPath><clipPath id="a6ba3e4f3b"><path d="M 121.566406 0.222656 L 0.339844 69.101562 L 72.925781 196.84375 L 194.148438 127.964844 Z M 121.566406 0.222656 " clip-rule="nonzero"/></clipPath><clipPath id="679589b881"><path d="M 121.566406 0.222656 L 0.339844 69.101562 L 72.925781 196.84375 L 194.148438 127.964844 Z M 121.566406 0.222656 " clip-rule="nonzero"/></clipPath><clipPath id="259e8d9631"><rect x="0" width="195" y="0" height="197"/></clipPath></defs><g clip-path="url(#544eb4619a)"><rect x="-22.486" width="269.854" fill="#ffffff" y="-22.491999" height="269.931" fill-opacity="1"/><g clip-path="url(#2b6da5e8db)"><g clip-path="url(#7d0b875a40)"><g clip-path="url(#8beb383163)"><path fill="#095f3d" d="M 29.285156 85.386719 L 78.832031 85.386719 L 78.832031 169.738281 L 29.285156 169.738281 Z M 29.285156 85.386719 " fill-opacity="1" fill-rule="nonzero"/></g></g></g></g><g clip-path="url(#7d2210ddf2)"><g clip-path="url(#84ff89b842)"><g clip-path="url(#132d5bbd4b)"><g clip-path="url(#17736c1b0f)"><path fill="#54b848" d="M 71.496094 10.253906 L 146.617188 109.246094 L 105.199219 109.246094 L 105.199219 37.332031 Z M 71.496094 10.253906 " fill-opacity="1" fill-rule="nonzero"/></g></g></g></g><g clip-path="url(#9102cddf02)"><g clip-path="url(#a6ba3e4f3b)"><g clip-path="url(#679589b881)"><rect x="0" y="0" width="224.879993" fill="#ffffff" height="225" fill-opacity="1"/><g clip-path="url(#259e8d9631)"><path fill="#095f3d" d="M 29.285156 85.386719 L 78.832031 85.386719 L 78.832031 169.738281 L 29.285156 169.738281 Z M 29.285156 85.386719 " fill-opacity="1" fill-rule="nonzero"/><path fill="#54b848" d="M 71.496094 10.253906 L 146.617188 109.246094 L 105.199219 109.246094 L 105.199219 37.332031 Z M 71.496094 10.253906 " fill-opacity="1" fill-rule="nonzero"/></g></g></g></g></svg>
