<svg xmlns="http://www.w3.org/2000/svg" xmlns:xlink="http://www.w3.org/1999/xlink" width="600" zoomAndPan="magnify" viewBox="0 0 450 299.999988" height="400" preserveAspectRatio="xMidYMid meet" version="1.0"><defs><g/><clipPath id="b5040df778"><path d="M 0 86 L 99 86 L 99 187 L 0 187 Z M 0 86 " clip-rule="nonzero"/></clipPath><clipPath id="d6c5989cd0"><path d="M 0.75 121.820312 L 62.046875 86.988281 L 98.730469 151.546875 L 37.433594 186.375 Z M 0.75 121.820312 " clip-rule="nonzero"/></clipPath><clipPath id="9b385315f5"><path d="M 14 43 L 72 43 L 72 88 L 14 88 Z M 14 43 " clip-rule="nonzero"/></clipPath><clipPath id="05e269712a"><path d="M 0.75 35.820312 L 62.046875 0.988281 L 98.730469 65.546875 L 37.433594 100.375 Z M 0.75 35.820312 " clip-rule="nonzero"/></clipPath><clipPath id="d98885953e"><path d="M 61.851562 1.101562 L 0.558594 35.929688 L 37.238281 100.484375 L 98.535156 65.65625 Z M 61.851562 1.101562 " clip-rule="nonzero"/></clipPath><clipPath id="9876ec914e"><path d="M 61.851562 1.101562 L 0.558594 35.929688 L 37.238281 100.484375 L 98.535156 65.65625 Z M 61.851562 1.101562 " clip-rule="nonzero"/></clipPath><clipPath id="95fcf7dae4"><path d="M 35 5 L 76 5 L 76 57 L 35 57 Z M 35 5 " clip-rule="nonzero"/></clipPath><clipPath id="3d3f03913f"><path d="M 0.75 35.820312 L 62.046875 0.988281 L 98.730469 65.546875 L 37.433594 100.375 Z M 0.75 35.820312 " clip-rule="nonzero"/></clipPath><clipPath id="351ff835c4"><path d="M 61.851562 1.101562 L 0.558594 35.929688 L 37.238281 100.484375 L 98.535156 65.65625 Z M 61.851562 1.101562 " clip-rule="nonzero"/></clipPath><clipPath id="15307c99de"><path d="M 61.851562 1.101562 L 0.558594 35.929688 L 37.238281 100.484375 L 98.535156 65.65625 Z M 61.851562 1.101562 " clip-rule="nonzero"/></clipPath><clipPath id="e538cb3f4c"><rect x="0" width="99" y="0" height="101"/></clipPath><clipPath id="702fe075ce"><rect x="0" width="372" y="0" height="69"/></clipPath></defs><rect x="-45" width="540" fill="#ffffff" y="-29.999999" height="359.999985" fill-opacity="1"/><g fill="#095f3d" fill-opacity="1"><g transform="translate(111.976395, 185.823357)"><g><path d="M 1.734375 -10.59375 L 18.65625 -10.59375 L 18.65625 -7.109375 L 5.9375 -7.109375 L 5.9375 -6.015625 L 17.671875 -6.015625 L 17.671875 -2.671875 L 5.9375 -2.671875 L 5.9375 -1.484375 L 18.8125 -1.484375 L 18.8125 2 L 1.734375 2 Z M 1.734375 -10.59375 "/></g></g></g><g fill="#095f3d" fill-opacity="1"><g transform="translate(132.134597, 185.823357)"><g><path d="M 13.125 -10.78125 L 17.375 -10.78125 L 17.375 -3.71875 C 17.375 -2.882812 17.519531 -2.25 17.8125 -1.8125 C 18.101562 -1.382812 18.5625 -1.171875 19.1875 -1.171875 C 19.8125 -1.171875 20.269531 -1.382812 20.5625 -1.8125 C 20.851562 -2.25 21 -2.882812 21 -3.71875 L 21 -10.78125 L 25.25 -10.78125 L 25.25 -3.515625 C 25.25 -1.835938 24.84375 -0.582031 24.03125 0.25 C 23.21875 1.082031 21.972656 1.5 20.296875 1.5 C 18.617188 1.5 17.375 1.082031 16.5625 0.25 C 15.75 -0.582031 15.34375 -1.835938 15.34375 -3.515625 Z M 13.125 -10.78125 "/></g></g></g><g fill="#095f3d" fill-opacity="1"><g transform="translate(159.619812, 185.823357)"><g><path d="M 5.40625 -3.328125 C 5.40625 -5.097656 5.875 -6.472656 6.8125 -7.453125 C 7.75 -8.441406 9.109375 -8.9375 10.890625 -8.9375 C 12.679688 -8.9375 14.039062 -8.441406 14.96875 -7.453125 C 15.894531 -6.472656 16.359375 -5.097656 16.359375 -3.328125 C 16.359375 -1.566406 15.894531 -0.191406 14.96875 0.796875 C 14.039062 1.796875 12.679688 2.296875 10.890625 2.296875 C 9.109375 2.296875 7.75 1.796875 6.8125 0.796875 C 5.875 -0.191406 5.40625 -1.566406 5.40625 -3.328125 Z M 9.71875 -3.328125 C 9.71875 -2.421875 9.859375 -1.757812 10.140625 -1.34375 C 10.421875 -0.9375 10.8125 -0.734375 11.3125 -0.734375 C 11.800781 -0.734375 12.1875 -0.9375 12.46875 -1.34375 C 12.757812 -1.757812 12.90625 -2.421875 12.90625 -3.328125 C 12.90625 -4.242188 12.757812 -4.90625 12.46875 -5.3125 C 12.1875 -5.71875 11.800781 -5.921875 11.3125 -5.921875 C 10.8125 -5.921875 10.421875 -5.71875 10.140625 -5.3125 C 9.859375 -4.90625 9.71875 -4.242188 9.71875 -3.328125 Z M 9.71875 -3.328125 "/></g></g></g><g fill="#095f3d" fill-opacity="1"><g transform="translate(177.499648, 185.823357)"><g><path d="M 1.734375 -10.59375 L 10.359375 -10.59375 C 12.410156 -10.59375 13.875 -10.226562 14.75 -9.5 C 15.625 -8.769531 16.0625 -7.664062 16.0625 -6.1875 C 16.0625 -5.289062 15.863281 -4.566406 15.46875 -4.015625 C 15.070312 -3.472656 14.515625 -3.082031 13.796875 -2.84375 C 14.828125 -2.601562 15.582031 -2.175781 16.0625 -1.5625 C 16.539062 -0.945312 16.78125 -0.132812 16.78125 0.875 C 16.78125 2.382812 16.332031 3.5 15.4375 4.21875 C 14.550781 4.945312 13.097656 5.3125 11.078125 5.3125 L 1.734375 5.3125 Z M 5.9375 -4.21875 L 9.515625 -4.21875 C 10.222656 -4.21875 10.753906 -4.351562 11.109375 -4.625 C 11.472656 -4.894531 11.65625 -5.328125 11.65625 -5.921875 C 11.65625 -6.460938 11.46875 -6.882812 11.09375 -7.1875 C 10.726562 -7.488281 10.171875 -7.640625 9.421875 -7.640625 L 5.9375 -7.640625 Z M 5.9375 -1.421875 L 10.421875 -1.421875 C 11.117188 -1.421875 11.65625 -1.578125 12.03125 -1.890625 C 12.414062 -2.210938 12.609375 -2.679688 12.609375 -3.296875 C 12.609375 -3.859375 12.414062 -4.28125 12.03125 -4.5625 C 11.65625 -4.851562 11.097656 -5 10.359375 -5 L 5.9375 -5 Z M 5.9375 -1.421875 "/></g></g></g><g fill="#095f3d" fill-opacity="1"><g transform="translate(195.518776, 185.823357)"><g><path d="M 2.6875 -0.234375 L 4.875 -0.234375 L 4.875 -5.359375 L 11.421875 -5.359375 L 11.421875 -0.234375 L 13.609375 -0.234375 L 13.609375 2 L 11.421875 2 L 11.421875 0.171875 L 4.875 0.171875 L 4.875 2 L 2.6875 2 Z M 4.875 -8.15625 L 11.421875 -8.15625 L 11.421875 -2.96875 L 4.875 -2.96875 Z M 0.5 -10.59375 L 15.734375 -10.59375 L 15.734375 -7.84375 L 0.5 -7.84375 Z M 0.5 -10.59375 "/></g></g></g><g fill="#095f3d" fill-opacity="1"><g transform="translate(212.730171, 185.823357)"><g><path d="M 2.34375 -2.390625 L 5.84375 -4.78125 C 6.601562 -5.238281 7.140625 -5.632812 7.453125 -5.96875 C 7.765625 -6.300781 7.921875 -6.644531 7.921875 -7 C 7.921875 -7.519531 7.796875 -7.929688 7.546875 -8.234375 C 7.296875 -8.546875 6.929688 -8.703125 6.453125 -8.703125 C 5.992188 -8.703125 5.609375 -8.546875 5.296875 -8.234375 C 4.992188 -7.929688 4.84375 -7.488281 4.84375 -6.90625 L 1.296875 -6.90625 C 1.367188 -8.613281 1.859375 -9.863281 2.765625 -10.65625 C 3.679688 -11.457031 4.921875 -11.859375 6.484375 -11.859375 C 8.066406 -11.859375 9.316406 -11.476562 10.234375 -10.71875 C 11.148438 -9.96875 11.609375 -8.988281 11.609375 -7.78125 C 11.609375 -6.53125 11.003906 -5.3125 9.796875 -4.125 L 5.53125 -0.15625 L 11.734375 -0.15625 L 11.734375 2 L 1.359375 2 L 1.359375 0 Z M 2.34375 -2.390625 "/></g></g></g><g fill="#095f3d" fill-opacity="1"><g transform="translate(226.207086, 185.823357)"><g><path d="M 5.546875 -4.15625 C 4.859375 -4.269531 4.320312 -4.539062 3.9375 -4.96875 C 3.5625 -5.394531 3.375 -5.925781 3.375 -6.5625 C 3.375 -7.539062 3.738281 -8.359375 4.46875 -9.015625 C 5.207031 -9.671875 6.171875 -10 7.359375 -10 C 8.554688 -10 9.519531 -9.671875 10.25 -9.015625 C 10.988281 -8.359375 11.359375 -7.539062 11.359375 -6.5625 C 11.359375 -5.925781 11.160156 -5.394531 10.765625 -4.96875 C 10.378906 -4.539062 9.835938 -4.269531 9.140625 -4.15625 C 9.960938 -4.007812 10.582031 -3.703125 11 -3.234375 C 11.425781 -2.773438 11.640625 -2.1875 11.640625 -1.46875 C 11.640625 -0.394531 11.25 0.488281 10.46875 1.1875 C 9.695312 1.882812 8.648438 2.234375 7.328125 2.234375 C 5.929688 2.234375 4.851562 1.878906 4.09375 1.171875 C 3.332031 0.460938 2.953125 -0.429688 2.953125 -1.5 C 2.953125 -2.238281 3.160156 -2.84375 3.578125 -3.3125 C 4.003906 -3.789062 4.664062 -4.09375 5.546875 -4.15625 Z M 6.734375 -6.234375 C 7.128906 -6.234375 7.453125 -6.367188 7.703125 -6.640625 C 7.953125 -6.921875 8.078125 -7.242188 8.078125 -7.609375 C 8.078125 -7.953125 7.957031 -8.265625 7.71875 -8.546875 C 7.476562 -8.835938 7.140625 -8.984375 6.703125 -8.984375 C 6.273438 -8.984375 5.9375 -8.84375 5.6875 -8.5625 C 5.4375 -8.28125 5.3125 -7.953125 5.3125 -7.578125 C 5.3125 -7.222656 5.445312 -6.921875 5.71875 -6.671875 C 5.988281 -6.421875 6.332031 -6.296875 6.734375 -6.296875 Z M 7.859375 -2.90625 C 8.171875 -2.5625 8.328125 -2.1875 8.328125 -1.78125 C 8.328125 -1.375 8.171875 -1.015625 7.859375 -0.703125 C 7.554688 -0.390625 7.148438 -0.234375 6.640625 -0.234375 C 6.128906 -0.234375 5.71875 -0.390625 5.40625 -0.703125 C 5.09375 -1.015625 4.9375 -1.394531 4.9375 -1.84375 C 4.9375 -2.238281 5.09375 -2.597656 5.40625 -2.921875 C 5.71875 -3.253906 6.128906 -3.421875 6.640625 -3.421875 C 7.148438 -3.421875 7.554688 -3.257812 7.859375 -2.9375 Z M 7.859375 -2.90625 "/></g></g></g><g fill="#095f3d" fill-opacity="1"><g transform="translate(239.286491, 185.823357)"><g><path d="M 9.578125 -10.359375 L 11.8125 -10.359375 C 11.6875 -9.878906 11.566406 -9.175781 11.453125 -8.25 C 11.347656 -7.320312 11.296875 -6.425781 11.296875 -5.5625 C 11.296875 -4.695312 11.347656 -3.800781 11.453125 -2.875 C 11.566406 -1.945312 11.6875 -1.25 11.8125 -0.78125 L 9.578125 -0.78125 C 9.554688 -1.207031 9.515625 -1.859375 9.453125 -2.734375 C 9.398438 -3.617188 9.375 -4.546875 9.375 -5.515625 C 9.375 -6.492188 9.398438 -7.421875 9.453125 -8.296875 C 9.515625 -9.171875 9.554688 -9.828125 9.578125 -10.265625 Z M 9.578125 -10.359375 "/></g></g></g><g fill="#095f3d" fill-opacity="1"><g transform="translate(252.803267, 185.823357)"><g><path d="M 1.296875 -10.421875 L 5.40625 -10.421875 L 5.40625 -7.09375 L 9.046875 -7.09375 L 9.046875 -10.421875 L 13.171875 -10.421875 L 13.171875 -0.234375 L 15.328125 -0.234375 L 15.328125 2 L -0.859375 2 L -0.859375 -0.234375 L 1.296875 -0.234375 Z M 5.40625 -4.6875 L 5.40625 -0.234375 L 9.046875 -0.234375 L 9.046875 -4.6875 Z M 5.40625 -4.6875 "/></g></g></g><g fill="#095f3d" fill-opacity="1"><g transform="translate(269.488758, 185.823357)"><g><path d="M 5.546875 -4.15625 C 4.859375 -4.269531 4.320312 -4.539062 3.9375 -4.96875 C 3.5625 -5.394531 3.375 -5.925781 3.375 -6.5625 C 3.375 -7.539062 3.738281 -8.359375 4.46875 -9.015625 C 5.207031 -9.671875 6.171875 -10 7.359375 -10 C 8.554688 -10 9.519531 -9.671875 10.25 -9.015625 C 10.988281 -8.359375 11.359375 -7.539062 11.359375 -6.5625 C 11.359375 -5.925781 11.160156 -5.394531 10.765625 -4.96875 C 10.378906 -4.539062 9.835938 -4.269531 9.140625 -4.15625 C 9.960938 -4.007812 10.582031 -3.703125 11 -3.234375 C 11.425781 -2.773438 11.640625 -2.1875 11.640625 -1.46875 C 11.640625 -0.394531 11.25 0.488281 10.46875 1.1875 C 9.695312 1.882812 8.648438 2.234375 7.328125 2.234375 C 5.929688 2.234375 4.851562 1.878906 4.09375 1.171875 C 3.332031 0.460938 2.953125 -0.429688 2.953125 -1.5 C 2.953125 -2.238281 3.160156 -2.84375 3.578125 -3.3125 C 4.003906 -3.789062 4.664062 -4.09375 5.546875 -4.15625 Z M 6.734375 -6.234375 C 7.128906 -6.234375 7.453125 -6.367188 7.703125 -6.640625 C 7.953125 -6.921875 8.078125 -7.242188 8.078125 -7.609375 C 8.078125 -7.953125 7.957031 -8.265625 7.71875 -8.546875 C 7.476562 -8.835938 7.140625 -8.984375 6.703125 -8.984375 C 6.273438 -8.984375 5.9375 -8.84375 5.6875 -8.5625 C 5.4375 -8.28125 5.3125 -7.953125 5.3125 -7.578125 C 5.3125 -7.222656 5.445312 -6.921875 5.71875 -6.671875 C 5.988281 -6.421875 6.332031 -6.296875 6.734375 -6.296875 Z M 7.859375 -2.90625 C 8.171875 -2.5625 8.328125 -2.1875 8.328125 -1.78125 C 8.328125 -1.375 8.171875 -1.015625 7.859375 -0.703125 C 7.554688 -0.390625 7.148438 -0.234375 6.640625 -0.234375 C 6.128906 -0.234375 5.71875 -0.390625 5.40625 -0.703125 C 5.09375 -1.015625 4.9375 -1.394531 4.9375 -1.84375 C 4.9375 -2.238281 5.09375 -2.597656 5.40625 -2.921875 C 5.71875 -3.253906 6.128906 -3.421875 6.640625 -3.421875 C 7.148438 -3.421875 7.554688 -3.257812 7.859375 -2.9375 Z M 7.859375 -2.90625 "/></g></g></g><g fill="#095f3d" fill-opacity="1"><g transform="translate(282.567895, 185.823357)"><g><path d="M 5.40625 -3.328125 C 5.40625 -5.097656 5.875 -6.472656 6.8125 -7.453125 C 7.75 -8.441406 9.109375 -8.9375 10.890625 -8.9375 C 12.679688 -8.9375 14.039062 -8.441406 14.96875 -7.453125 C 15.894531 -6.472656 16.359375 -5.097656 16.359375 -3.328125 C 16.359375 -1.566406 15.894531 -0.191406 14.96875 0.796875 C 14.039062 1.796875 12.679688 2.296875 10.890625 2.296875 C 9.109375 2.296875 7.75 1.796875 6.8125 0.796875 C 5.875 -0.191406 5.40625 -1.566406 5.40625 -3.328125 Z M 9.71875 -3.328125 C 9.71875 -2.421875 9.859375 -1.757812 10.140625 -1.34375 C 10.421875 -0.9375 10.8125 -0.734375 11.3125 -0.734375 C 11.800781 -0.734375 12.1875 -0.9375 12.46875 -1.34375 C 12.757812 -1.757812 12.90625 -2.421875 12.90625 -3.328125 C 12.90625 -4.242188 12.757812 -4.90625 12.46875 -5.3125 C 12.1875 -5.71875 11.800781 -5.921875 11.3125 -5.921875 C 10.8125 -5.921875 10.421875 -5.71875 10.140625 -5.3125 C 9.859375 -4.90625 9.71875 -4.242188 9.71875 -3.328125 Z M 9.71875 -3.328125 "/></g></g></g><g fill="#54b848" fill-opacity="1"><g transform="translate(300.447731, 185.823357)"><g/></g></g><g fill="#54b848" fill-opacity="1"><g transform="translate(306.987041, 185.823357)"><g><path d="M 0.359375 -10.421875 L 11.25 -10.421875 L 11.25 -7.890625 L 4.109375 -7.890625 L 4.109375 -5.859375 L 7.140625 -5.859375 C 9.460938 -5.859375 11.160156 -5.457031 12.234375 -4.65625 C 13.304688 -3.863281 13.84375 -2.671875 13.84375 -1.078125 C 13.84375 0.484375 13.300781 1.664062 12.21875 2.46875 C 11.132812 3.269531 9.476562 3.671875 7.234375 3.671875 L 0.359375 3.671875 Z M 4.109375 -3.421875 L 4.109375 1.140625 L 7.25 1.140625 C 8.03125 1.140625 8.628906 0.972656 9.046875 0.640625 C 9.460938 0.304688 9.671875 -0.179688 9.671875 -0.828125 C 9.671875 -1.472656 9.460938 -1.953125 9.046875 -2.265625 C 8.628906 -2.585938 8.039062 -2.75 7.28125 -2.75 L 4.109375 -2.75 Z M 4.109375 -3.421875 "/></g></g></g><g fill="#54b848" fill-opacity="1"><g transform="translate(321.967806, 185.823357)"><g><path d="M 0.34375 -10.421875 L 12.21875 -10.421875 L 12.21875 -7.953125 L 4.03125 -7.953125 L 4.03125 -6.078125 L 11.859375 -6.078125 L 11.859375 -3.640625 L 4.03125 -3.640625 L 4.03125 -1.78125 L 12.453125 -1.78125 L 12.453125 0.6875 L 0.34375 0.6875 Z M 0.34375 -10.421875 "/></g></g></g><g fill="#54b848" fill-opacity="1"><g transform="translate(336.051995, 185.823357)"><g><path d="M 0.5 -10.421875 L 9.96875 -10.421875 C 12.132812 -10.421875 13.785156 -9.984375 14.921875 -9.109375 C 16.054688 -8.242188 16.625 -6.960938 16.625 -5.265625 C 16.625 -3.585938 16.054688 -2.316406 14.921875 -1.453125 C 13.785156 -0.585938 12.132812 -0.15625 9.96875 -0.15625 L 4.125 -0.15625 L 4.125 0.6875 L 0.5 0.6875 Z M 4.125 -7.953125 L 4.125 -2.65625 L 9.21875 -2.65625 C 10.132812 -2.65625 10.84375 -2.8125 11.34375 -3.125 C 11.84375 -3.445312 12.09375 -3.957031 12.09375 -4.65625 C 12.09375 -5.367188 11.84375 -5.894531 11.34375 -6.234375 C 10.84375 -6.582031 10.132812 -6.753906 9.21875 -6.753906 L 4.125 -6.753906 Z M 4.125 -7.953125 "/></g></g></g><g fill="#54b848" fill-opacity="1"><g transform="translate(354.572944, 185.823357)"><g><path d="M 9.40625 -7.953125 L 4.03125 -7.953125 L 4.03125 0.6875 L 0.34375 0.6875 L 0.34375 -10.421875 L 13.140625 -10.421875 L 13.140625 -7.953125 L 9.40625 -7.953125 Z M 9.40625 -7.953125 "/></g></g></g><g clip-path="url(#b5040df778)"><g clip-path="url(#d6c5989cd0)"><path fill="#095f3d" d="M 14.617188 43.929688 L 39.441406 43.929688 L 39.441406 85.050781 L 14.617188 85.050781 Z M 14.617188 43.929688 " fill-opacity="1" fill-rule="nonzero"/></g></g><g clip-path="url(#9b385315f5)"><g clip-path="url(#05e269712a)"><g clip-path="url(#d98885953e)"><g clip-path="url(#9876ec914e)"><g clip-path="url(#95fcf7dae4)"><path fill="#54b848" d="M 35.730469 5.097656 L 73.066406 54.644531 L 52.484375 54.644531 L 52.484375 18.652344 Z M 35.730469 5.097656 " fill-opacity="1" fill-rule="nonzero"/></g></g></g></g></g><g clip-path="url(#3d3f03913f)"><g clip-path="url(#351ff835c4)"><g clip-path="url(#15307c99de)"><rect x="0" y="0" width="99" fill="#ffffff" height="100.499998" fill-opacity="1"/><g clip-path="url(#e538cb3f4c)"><path fill="#095f3d" d="M 14.617188 43.929688 L 39.441406 43.929688 L 39.441406 85.050781 L 14.617188 85.050781 Z M 14.617188 43.929688 " fill-opacity="1" fill-rule="nonzero"/><path fill="#54b848" d="M 35.730469 5.097656 L 73.066406 54.644531 L 52.484375 54.644531 L 52.484375 18.652344 Z M 35.730469 5.097656 " fill-opacity="1" fill-rule="nonzero"/></g></g></g></g></svg>
